# xmcd CD database file
#
# Track frame offsets:
#	150
#	14773
#	28648
#	41848
#	51745
#	65470
#	77023
#	90973
#	102820
#	116243
#	130120
#	141145
#
# Disc length: 2052 seconds
#
# Revision: 1
# Processed by: cddbd v1.5.1PL0 Copyright (c) Steve Scherf et al.
# Submitted via: CDex 1.51
#
DISCID=a508020c
DTITLE=Jose Alfredo Jimenez - 12 Exitos De Oro
DYEAR=1988
DGENRE=Latin
TTITLE0=Camino De Guanajuato
TTITLE1=Sonaron Cuatro Balazos
TTITLE2=El Jinete
TTITLE3=El Rey
TTITLE4=El Caballo Blanco
TTITLE5=El Siete Mares
TTITLE6=Llego Borracho El Borracho
TTITLE7=La Media Vuelta
TTITLE8=Ella
TTITLE9=Corazon Corazon
TTITLE10=Para Morir Iguales
TTITLE11=15 de Septiembre
EXTD=12 Exitos De Oro YEAR: 1988
EXTT0=
EXTT1=
EXTT2=
EXTT3=
EXTT4=
EXTT5=
EXTT6=
EXTT7=
EXTT8=
EXTT9=
EXTT10=
EXTT11=
PLAYORDER=
